<mxfile host="app.diagrams.net" modified="2023-12-18T05:09:59.777Z" agent="Mozilla/5.0 (Windows NT 10.0; Win64; x64) AppleWebKit/537.36 (KHTML, like Gecko) Chrome/120.0.0.0 Safari/537.36" etag="h-suGykz02fJKRnhbjMF" version="22.1.11" type="github">
  <diagram id="C5RBs43oDa-KdzZeNtuy" name="Page-1">
    <mxGraphModel dx="1293" dy="670" grid="1" gridSize="10" guides="1" tooltips="1" connect="1" arrows="1" fold="1" page="1" pageScale="1" pageWidth="827" pageHeight="1169" math="0" shadow="0">
      <root>
        <mxCell id="WIyWlLk6GJQsqaUBKTNV-0" />
        <mxCell id="WIyWlLk6GJQsqaUBKTNV-1" parent="WIyWlLk6GJQsqaUBKTNV-0" />
        <mxCell id="abffdMrdUMkTcwWsMWbN-0" value="" style="rounded=0;html=1;jettySize=auto;orthogonalLoop=1;fontSize=11;endArrow=block;endFill=0;endSize=8;strokeWidth=1;shadow=0;labelBackgroundColor=none;edgeStyle=orthogonalEdgeStyle;" edge="1" parent="WIyWlLk6GJQsqaUBKTNV-1" source="abffdMrdUMkTcwWsMWbN-1">
          <mxGeometry relative="1" as="geometry">
            <mxPoint x="290" y="290" as="targetPoint" />
          </mxGeometry>
        </mxCell>
        <mxCell id="abffdMrdUMkTcwWsMWbN-1" value="Legacy System requests data from SAP" style="rounded=1;whiteSpace=wrap;html=1;fontSize=12;glass=0;strokeWidth=1;shadow=0;" vertex="1" parent="WIyWlLk6GJQsqaUBKTNV-1">
          <mxGeometry x="230" y="190" width="120" height="50" as="geometry" />
        </mxCell>
        <mxCell id="abffdMrdUMkTcwWsMWbN-2" style="edgeStyle=orthogonalEdgeStyle;rounded=0;orthogonalLoop=1;jettySize=auto;html=1;exitX=0.5;exitY=1;exitDx=0;exitDy=0;entryX=0.5;entryY=0;entryDx=0;entryDy=0;" edge="1" parent="WIyWlLk6GJQsqaUBKTNV-1" source="abffdMrdUMkTcwWsMWbN-3" target="abffdMrdUMkTcwWsMWbN-10">
          <mxGeometry relative="1" as="geometry" />
        </mxCell>
        <mxCell id="abffdMrdUMkTcwWsMWbN-3" value="send request to web service" style="rounded=0;whiteSpace=wrap;html=1;" vertex="1" parent="WIyWlLk6GJQsqaUBKTNV-1">
          <mxGeometry x="230" y="290" width="120" height="60" as="geometry" />
        </mxCell>
        <mxCell id="abffdMrdUMkTcwWsMWbN-4" value="" style="edgeStyle=orthogonalEdgeStyle;rounded=0;orthogonalLoop=1;jettySize=auto;html=1;" edge="1" parent="WIyWlLk6GJQsqaUBKTNV-1" source="abffdMrdUMkTcwWsMWbN-5" target="abffdMrdUMkTcwWsMWbN-14">
          <mxGeometry relative="1" as="geometry" />
        </mxCell>
        <mxCell id="abffdMrdUMkTcwWsMWbN-5" value="call SAP RFC" style="rounded=0;whiteSpace=wrap;html=1;" vertex="1" parent="WIyWlLk6GJQsqaUBKTNV-1">
          <mxGeometry x="230" y="530" width="120" height="60" as="geometry" />
        </mxCell>
        <mxCell id="abffdMrdUMkTcwWsMWbN-6" style="edgeStyle=orthogonalEdgeStyle;rounded=0;orthogonalLoop=1;jettySize=auto;html=1;exitX=1;exitY=0.5;exitDx=0;exitDy=0;" edge="1" parent="WIyWlLk6GJQsqaUBKTNV-1" source="abffdMrdUMkTcwWsMWbN-10">
          <mxGeometry relative="1" as="geometry">
            <mxPoint x="390" y="440.33333333333337" as="targetPoint" />
          </mxGeometry>
        </mxCell>
        <mxCell id="abffdMrdUMkTcwWsMWbN-7" value="Yes" style="edgeLabel;html=1;align=center;verticalAlign=middle;resizable=0;points=[];" vertex="1" connectable="0" parent="abffdMrdUMkTcwWsMWbN-6">
          <mxGeometry x="-0.0935" y="3" relative="1" as="geometry">
            <mxPoint as="offset" />
          </mxGeometry>
        </mxCell>
        <mxCell id="abffdMrdUMkTcwWsMWbN-8" style="edgeStyle=orthogonalEdgeStyle;rounded=0;orthogonalLoop=1;jettySize=auto;html=1;exitX=0.5;exitY=1;exitDx=0;exitDy=0;entryX=0.5;entryY=0;entryDx=0;entryDy=0;" edge="1" parent="WIyWlLk6GJQsqaUBKTNV-1" source="abffdMrdUMkTcwWsMWbN-10">
          <mxGeometry relative="1" as="geometry">
            <mxPoint x="290" y="530" as="targetPoint" />
          </mxGeometry>
        </mxCell>
        <mxCell id="abffdMrdUMkTcwWsMWbN-9" value="No" style="edgeLabel;html=1;align=center;verticalAlign=middle;resizable=0;points=[];" vertex="1" connectable="0" parent="abffdMrdUMkTcwWsMWbN-8">
          <mxGeometry x="-0.2943" y="1" relative="1" as="geometry">
            <mxPoint as="offset" />
          </mxGeometry>
        </mxCell>
        <mxCell id="abffdMrdUMkTcwWsMWbN-10" value="needed tranform or not?" style="rhombus;whiteSpace=wrap;html=1;" vertex="1" parent="WIyWlLk6GJQsqaUBKTNV-1">
          <mxGeometry x="250" y="400" width="80" height="80" as="geometry" />
        </mxCell>
        <mxCell id="abffdMrdUMkTcwWsMWbN-11" style="edgeStyle=orthogonalEdgeStyle;rounded=0;orthogonalLoop=1;jettySize=auto;html=1;entryX=1;entryY=0.5;entryDx=0;entryDy=0;exitX=0.5;exitY=1;exitDx=0;exitDy=0;" edge="1" parent="WIyWlLk6GJQsqaUBKTNV-1" source="abffdMrdUMkTcwWsMWbN-12" target="abffdMrdUMkTcwWsMWbN-5">
          <mxGeometry relative="1" as="geometry">
            <mxPoint x="484" y="480" as="sourcePoint" />
            <mxPoint x="434" y="600" as="targetPoint" />
          </mxGeometry>
        </mxCell>
        <mxCell id="abffdMrdUMkTcwWsMWbN-12" value="Tranform" style="rounded=0;whiteSpace=wrap;html=1;" vertex="1" parent="WIyWlLk6GJQsqaUBKTNV-1">
          <mxGeometry x="400" y="410" width="120" height="60" as="geometry" />
        </mxCell>
        <mxCell id="abffdMrdUMkTcwWsMWbN-13" style="edgeStyle=orthogonalEdgeStyle;rounded=0;orthogonalLoop=1;jettySize=auto;html=1;entryX=0.5;entryY=0;entryDx=0;entryDy=0;" edge="1" parent="WIyWlLk6GJQsqaUBKTNV-1" source="abffdMrdUMkTcwWsMWbN-14" target="abffdMrdUMkTcwWsMWbN-20">
          <mxGeometry relative="1" as="geometry" />
        </mxCell>
        <mxCell id="abffdMrdUMkTcwWsMWbN-14" value="SAP RFC response data to web service" style="whiteSpace=wrap;html=1;rounded=0;" vertex="1" parent="WIyWlLk6GJQsqaUBKTNV-1">
          <mxGeometry x="230" y="670" width="120" height="60" as="geometry" />
        </mxCell>
        <mxCell id="abffdMrdUMkTcwWsMWbN-15" value="Tranform" style="rounded=0;whiteSpace=wrap;html=1;" vertex="1" parent="WIyWlLk6GJQsqaUBKTNV-1">
          <mxGeometry x="420" y="790" width="120" height="60" as="geometry" />
        </mxCell>
        <mxCell id="abffdMrdUMkTcwWsMWbN-16" style="edgeStyle=orthogonalEdgeStyle;rounded=0;orthogonalLoop=1;jettySize=auto;html=1;entryX=0;entryY=0.5;entryDx=0;entryDy=0;" edge="1" parent="WIyWlLk6GJQsqaUBKTNV-1" source="abffdMrdUMkTcwWsMWbN-20" target="abffdMrdUMkTcwWsMWbN-15">
          <mxGeometry relative="1" as="geometry" />
        </mxCell>
        <mxCell id="abffdMrdUMkTcwWsMWbN-17" value="Yes" style="edgeLabel;html=1;align=center;verticalAlign=middle;resizable=0;points=[];" vertex="1" connectable="0" parent="abffdMrdUMkTcwWsMWbN-16">
          <mxGeometry x="-0.0616" y="-1" relative="1" as="geometry">
            <mxPoint as="offset" />
          </mxGeometry>
        </mxCell>
        <mxCell id="abffdMrdUMkTcwWsMWbN-18" value="" style="edgeStyle=orthogonalEdgeStyle;rounded=0;orthogonalLoop=1;jettySize=auto;html=1;" edge="1" parent="WIyWlLk6GJQsqaUBKTNV-1" source="abffdMrdUMkTcwWsMWbN-20">
          <mxGeometry relative="1" as="geometry">
            <mxPoint x="290" y="950" as="targetPoint" />
          </mxGeometry>
        </mxCell>
        <mxCell id="abffdMrdUMkTcwWsMWbN-19" value="No" style="edgeLabel;html=1;align=center;verticalAlign=middle;resizable=0;points=[];" vertex="1" connectable="0" parent="abffdMrdUMkTcwWsMWbN-18">
          <mxGeometry x="-0.2172" relative="1" as="geometry">
            <mxPoint as="offset" />
          </mxGeometry>
        </mxCell>
        <mxCell id="abffdMrdUMkTcwWsMWbN-20" value="needed tranform or not?" style="rhombus;whiteSpace=wrap;html=1;" vertex="1" parent="WIyWlLk6GJQsqaUBKTNV-1">
          <mxGeometry x="250" y="780" width="80" height="80" as="geometry" />
        </mxCell>
        <mxCell id="abffdMrdUMkTcwWsMWbN-21" value="send response to Legacy System" style="rounded=1;whiteSpace=wrap;html=1;" vertex="1" parent="WIyWlLk6GJQsqaUBKTNV-1">
          <mxGeometry x="230" y="950" width="120" height="60" as="geometry" />
        </mxCell>
      </root>
    </mxGraphModel>
  </diagram>
</mxfile>
